PathFileType	4	(X/Y/Z)	/Users/niels/Desktop/University/Third Semester/Perception and Action/Exam/Gymnastics Motion Tracking/Code for Gym Tracking/Analyzed Data/Backflip/backflip_good_idn_4_Sports2D/backflip_good_idn_4_Sports2D_px_person00.trc
DataRate	CameraRate	NumFrames	NumMarkers	Units	OrigDataRate	OrigDataStartFrame	OrigNumFrames
60.11730205278593	60.11730205278593	12	22	m	60.11730205278593	0	206
Frame#	Time	Hip			RHip			RKnee			RAnkle			RBigToe			RSmallToe			RHeel			LHip			LKnee			LAnkle			LBigToe			LSmallToe			LHeel			Neck			Head			Nose			RShoulder			RElbow			RWrist			LShoulder			LElbow			LWrist		
		X1	Y1	Z1	X2	Y2	Z2	X3	Y3	Z3	X4	Y4	Z4	X5	Y5	Z5	X6	Y6	Z6	X7	Y7	Z7	X8	Y8	Z8	X9	Y9	Z9	X10	Y10	Z10	X11	Y11	Z11	X12	Y12	Z12	X13	Y13	Z13	X14	Y14	Z14	X15	Y15	Z15	X16	Y16	Z16	X17	Y17	Z17	X18	Y18	Z18	X19	Y19	Z19	X20	Y20	Z20	X21	Y21	Z21	X22	Y22	Z22
0	0.0	1.1040420958823687	-0.5384013392944506	0.0	1.1008992546839147	-0.5383136509349273	0.0	1.099429242735311	-0.6362239414789352	0.0	1.0761052072865929	-0.7215673320260164	0.0	1.1056254031656918	-0.7277814734068438	0.0	1.0993597087381206	-0.7324478089131945	0.0	1.068309427545224	-0.7261824639433204	0.0	1.1009246869511298	-0.538325586624793	0.0	1.1010522838469032	-0.6361927709522549	0.0	1.0745137982375814	-0.7184374601038916	0.0	1.1117341785240775	-0.7262272828008001	0.0	1.1008699349240825	-0.7262849279135678	0.0	1.0636031706166051	-0.7230937347830626	0.0	1.0931914197919599	-0.40657221482423345	0.0	1.0995225275173381	-0.34731437100803675	0.0	1.1149449746597346	-0.3738266911329274	0.0	1.0900842355801177	-0.4125993998560254	0.0	1.1181184294020012	-0.3489298334094771	0.0	1.114875421047796	-0.2914718244209933	0.0	1.0916405445085278	-0.4141998207665736	0.0	1.118057438226598	-0.3520504777628151	0.0	1.1118042453082324	-0.29930045417487827	0.0
1	0.016634146341463412	1.1041429762160289	-0.5380035011098561	0.0	1.1009267884151104	-0.537796026331564	0.0	1.0994953580066256	-0.6358260824097974	0.0	1.07604926776345	-0.7213360828631495	0.0	1.105568990721065	-0.7276976724384882	0.0	1.099199261062606	-0.7323487024475998	0.0	1.0683827661577032	-0.7259508404235168	0.0	1.101368404368835	-0.5376661766356119	0.0	1.1014726495654419	-0.6354798176554711	0.0	1.0748827093034798	-0.7181739261208273	0.0	1.1121129258256635	-0.7262095892813748	0.0	1.1009780886764675	-0.7262174633084331	0.0	1.064201732340328	-0.7225231123878497	0.0	1.0937282804227733	-0.40562745783859394	0.0	1.0998000528017884	-0.3469165886400138	0.0	1.1152476419770325	-0.3731232714974152	0.0	1.0900633899232917	-0.41208352599369297	0.0	1.1178991131362372	-0.3480426497600069	0.0	1.114955272915519	-0.29033195786626126	0.0	1.09226439142774	-0.41346157183821125	0.0	1.117948480312787	-0.3509360981150063	0.0	1.1117866989899456	-0.2978695302768987	0.0
2	0.033268292682926824	1.1042513784319186	-0.5375963355045253	0.0	1.1009677304579983	-0.5372727506506121	0.0	1.099570656668184	-0.6353980563923092	0.0	1.0760331527245555	-0.7210648100121174	0.0	1.105527398493825	-0.7275750556418973	0.0	1.0990643969523266	-0.7322180599570317	0.0	1.0684807318476182	-0.7256940070216239	0.0	1.1017894772445926	-0.537013368119273	0.0	1.1018641647589995	-0.6347546324945809	0.0	1.075262416335285	-0.717884583247898	0.0	1.1125000035604156	-0.7261530044576241	0.0	1.101116181350764	-0.726107397893021	0.0	1.0647968745417964	-0.7219506109240896	0.0	1.094254445662614	-0.4046937881512794	0.0	1.1000966835292412	-0.3464829793047283	0.0	1.1155512231896962	-0.37241376890026306	0.0	1.0900546161634062	-0.4115626398775493	0.0	1.1176837471808068	-0.34715553010912276	0.0	1.1150473839671702	-0.28922188058600046	0.0	1.092849351723726	-0.41272649822431345	0.0	1.1178224496467413	-0.34984215880910463	0.0	1.1117506412647191	-0.2964729533858601	0.0
3	0.04990243902439023	1.1043688952183548	-0.5371773710453108	0.0	1.1010276566767676	-0.5367438058426335	0.0	1.099661809377467	-0.6349212318300328	0.0	1.0760809206618063	-0.7207310576564621	0.0	1.1055157103267685	-0.727391510527999	0.0	1.0989729000738868	-0.7320397891439491	0.0	1.0686134141065096	-0.7253963175177809	0.0	1.1021685346254517	-0.5363762986459618	0.0	1.102211975348455	-0.634014128964541	0.0	1.0756522467145788	-0.7175532883661098	0.0	1.1128966907645765	-0.7260340821509769	0.0	1.1013028181438103	-0.7259328215617139	0.0	1.0653739465540664	-0.7213853698296279	0.0	1.0947544910053972	-0.4037913537976737	0.0	1.1004240697276264	-0.3459906091596724	0.0	1.1158521438498827	-0.37170214666062373	0.0	1.090064495688161	-0.41103369771792203	0.0	1.117485791850085	-0.3462732669651961	0.0	1.1151556145243968	-0.2881696479249695	0.0	1.0933591277105066	-0.41200716299424334	0.0	1.1176711089979983	-0.3487956105024709	0.0	1.1116946277182496	-0.29515479173570847	0.0
4	0.06653658536585365	1.1044956365202414	-0.5367495586387359	0.0	1.1011123658650002	-0.5362167817219926	0.0	1.09977041404276	-0.6343881629621291	0.0	1.0762033606842363	-0.7203302300152505	0.0	1.1055463295612526	-0.727137927846288	0.0	1.0989413433960675	-0.7318070702353678	0.0	1.0687861830538499	-0.7250544497864915	0.0	1.10249387802074	-0.5357665557309003	0.0	1.1025072254992134	-0.6332620902751199	0.0	1.0760498658786333	-0.7171767008020776	0.0	1.1133084526651285	-0.7258411123242771	0.0	1.1015485892857835	-0.7256830658548836	0.0	1.0659233018132745	-0.7208396771372313	0.0	1.0952145815117558	-0.40293216301667106	0.0	1.1007740692226544	-0.3454345093858075	0.0	1.11614210517996	-0.3709955351875585	0.0	1.0900946012045827	-0.4104982418061831	0.0	1.117317695058473	-0.34539938321090474	0.0	1.1152829883975588	-0.2871952937852125	0.0	1.0937663547149423	-0.4113158498352024	0.0	1.1174926102964826	-0.34781651378668504	0.0	1.1116250764069606	-0.2939474331819369	0.0
5	0.08317073170731706	1.1046291023523447	-0.5363201029380243	0.0	1.1012272648535797	-0.5357039065941813	0.0	1.0998949285122734	-0.6338018312290165	0.0	1.0763972739500285	-0.7198702727692974	0.0	1.1056271683857701	-0.7268162327788568	0.0	1.098981137714068	-0.7315184600026166	0.0	1.0690009619910599	-0.724673662946144	0.0	1.102761644772101	-0.5351971909204764	0.0	1.1027446584141252	-0.6325071304835692	0.0	1.076452979047424	-0.7167608096702153	0.0	1.113741127210531	-0.7255715207607253	0.0	1.1018589423068184	-0.7253537887550536	0.0	1.0664391824012431	-0.720323929251644	0.0	1.095625198589768	-0.4021197322441751	0.0	1.1011193674031399	-0.344829624211476	0.0	1.1164090913173956	-0.37030275091358805	0.0	1.0901432096556107	-0.4099642069888646	0.0	1.117187192602686	-0.3445427976603026	0.0	1.1154307246513742	-0.2863119833078636	0.0	1.0940571967818502	-0.4106615384032505	0.0	1.1172940623932697	-0.34691674700426905	0.0	1.1115521162370414	-0.29286868520320297	0.0
6	0.09980487804878047	1.1047639127964948	-0.5358970807575688	0.0	1.1013765129787818	-0.5352177091078936	0.0	1.1000315030469603	-0.6331737076715784	0.0	1.076648932517484	-0.7193678126093883	0.0	1.1057622816544221	-0.7264379417671736	0.0	1.0990978292472864	-0.7311781789847224	0.0	1.0692562917144146	-0.7242662409251345	0.0	1.1029754977754136	-0.534681089079458	0.0	1.102920704417346	-0.6317619181535257	0.0	1.076860095754448	-0.7163196828775494	0.0	1.1142016698732056	-0.7252307944090258	0.0	1.1022393551929128	-0.7249445614709371	0.0	1.0669208781087343	-0.7198451227956258	0.0	1.0959833104080148	-0.4013494136875738	0.0	1.1014215685721986	-0.34420695181755856	0.0	1.1166412948955577	-0.36963298138875944	0.0	1.0902078223254572	-0.4094430922971659	0.0	1.1170951795373825	-0.3437199484186981	0.0	1.1155979863337961	-0.2855260135642363	0.0	1.0942340505644579	-0.4100495527949974	0.0	1.1170885569349742	-0.3461022045796111	0.0	1.1114845477831086	-0.29192406863674153	0.0
7	0.11643902439024388	1.1048942970820768	-0.5354846079369334	0.0	1.101561877179031	-0.5347688827744889	0.0	1.1001756282683617	-0.6325207566738495	0.0	1.0769409498707982	-0.718845249125338	0.0	1.1059510373703614	-0.7260217922271854	0.0	1.0992916563569213	-0.7307962723017043	0.0	1.0695482849323779	-0.7238497018093762	0.0	1.1031458629568691	-0.534228444312684	0.0	1.1030340022056666	-0.6310418347286076	0.0	1.077270540549321	-0.7158731102238847	0.0	1.114698556697563	-0.7248324784198978	0.0	1.1026951215127931	-0.7244613815742905	0.0	1.0673745395637053	-0.7194083439669704	0.0	1.0962921974111848	-0.40060920293221586	0.0	1.1016450841924297	-0.34360396747821753	0.0	1.1168320493948358	-0.36899460428377684	0.0	1.0902857217025794	-0.40894411345077575	0.0	1.1170359324379786	-0.3429496470092463	0.0	1.115784137092061	-0.28483521642326415	0.0	1.0943146118752258	-0.4094807240736024	0.0	1.11689123272153	-0.34537477239925146	0.0	1.1114323181689654	-0.2911080617608091	0.0
8	0.1330731707317073	1.105018504652472	-0.5350813097140223	0.0	1.1017822219507174	-0.5343672376181261	0.0	1.1003236733395143	-0.6318619233349849	0.0	1.077256585261587	-0.7183268447671222	0.0	1.106185850371202	-0.725591484600275	0.0	1.0995554659912976	-0.7303879263395857	0.0	1.069871032713544	-0.7234448309736599	0.0	1.1032896753231414	-0.5338442102788953	0.0	1.1030865319452297	-0.6303626173118049	0.0	1.0776833497454286	-0.7154421092074734	0.0	1.1152362687431285	-0.7243984287574274	0.0	1.103224752977416	-0.7239204874718123	0.0	1.067811312208813	-0.7190193800306739	0.0	1.0965588861809548	-0.39988088980255765	0.0	1.1017695553266451	-0.3430546377972976	0.0	1.1169832684170236	-0.3683924335212727	0.0	1.0903743234926497	-0.4084718526302971	0.0	1.1169989805022336	-0.34224799593783584	0.0	1.115991838406727	-0.28423130932419977	0.0	1.0943281428585185	-0.408949976612461	0.0	1.1167183338336308	-0.3447329603586102	0.0	1.1114118586985906	-0.2904051685128299	0.0
9	0.1497073170731707	1.1051405153183234	-0.5346826593650094	0.0	1.1020345787017722	-0.5340214523541711	0.0	1.1004733961301876	-0.6312149810449501	0.0	1.0775791584240286	-0.7178357521067231	0.0	1.1064533575774953	-0.7251737603444844	0.0	1.0998737477020615	-0.7299742639983503	0.0	1.0702147937222084	-0.7230737233879039	0.0	1.1034277326227122	-0.5335279023058866	0.0	1.1030844881805342	-0.629737834741436	0.0	1.0780944983490826	-0.7150451359375255	0.0	1.1158088674534958	-0.7239576666497218	0.0	1.103816520067357	-0.7233490224289991	0.0	1.068239976518469	-0.7186876909054746	0.0	1.096790959158052	-0.3991437835009447	0.0	1.1017925775787434	-0.34258419196755757	0.0	1.1171040229791267	-0.3678265862083104	0.0	1.0904729951524932	-0.4080277227658049	0.0	1.116974018109789	-0.34162773943974023	0.0	1.1162256240411552	-0.28370647752690303	0.0	1.0943076810335954	-0.408449507823848	0.0	1.1165866605472092	-0.3441748028949806	0.0	1.1114449447411414	-0.2897979367933924	0.0
10	0.16634146341463413	1.1052670624249727	-0.5342827648784481	0.0	1.1023148761106327	-0.5337359785400377	0.0	1.1006253597173996	-0.6305931882233731	0.0	1.077891900956782	-0.7173898959516998	0.0	1.106740003263924	-0.7247917829626377	0.0	1.100226712433257	-0.7295776467938755	0.0	1.0705654256141157	-0.7227538003169829	0.0	1.1035785086425238	-0.533275116654067	0.0	1.1030397627159911	-0.629175701126602	0.0	1.078495738443517	-0.714693961957825	0.0	1.1164000600081254	-0.7235388027874193	0.0	1.1044538739982313	-0.7227785136755259	0.0	1.0686593540206637	-0.7184249438801833	0.0	1.0969946712627785	-0.39838098698782853	0.0	1.1017247687272484	-0.34220819736699487	0.0	1.117206816730639	-0.3672951748674198	0.0	1.0905846212371648	-0.4076101118067169	0.0	1.116956751471901	-0.34109888874530725	0.0	1.116486627634651	-0.28325650969523586	0.0	1.0942808989105595	-0.40797435391322917	0.0	1.1165120207440846	-0.3437009348299671	0.0	1.1115554577773799	-0.2892761323913904	0.0
11	0.18297560975609753	1.1054040458825694	-0.533873405141551	0.0	1.1026178468930257	-0.5335085499619701	0.0	1.100783822100818	-0.6300040724222479	0.0	1.0781807617234382	-0.7169983882596568	0.0	1.1070376397374013	-0.7244580560817265	0.0	1.1005972362247536	-0.7292126972377927	0.0	1.0709068722087303	-0.7224931178952886	0.0	1.103752434179187	-0.5330785951181345	0.0	1.1029684868533594	-0.6286776481503369	0.0	1.0788764959802135	-0.7143920201054059	0.0	1.1169897515279446	-0.7231602700553563	0.0	1.1051235649152764	-0.7222354146750384	0.0	1.0690570158869268	-0.7182399091032525	0.0	1.0971759091049391	-0.39758297509590024	0.0	1.1015852140215967	-0.34193358285473807	0.0	1.1173079643131365	-0.3667957209547558	0.0	1.0907158876626126	-0.40721320128674504	0.0	1.1169498221082994	-0.34066742218129653	0.0	1.1167709404588215	-0.28287693563040633	0.0	1.0942657833315392	-0.4075246408194183	0.0	1.116506333548742	-0.3433127592565096	0.0	1.1117657313533786	-0.28883474816325055	0.0
